<?xml version="1.0" standalone="no"?>
<!DOCTYPE svg PUBLIC "-//W3C//DTD SVG 20010904//EN"
 "http://www.w3.org/TR/2001/REC-SVG-20010904/DTD/svg10.dtd">
<svg version="1.0" xmlns="http://www.w3.org/2000/svg"
 width="700.000000pt" height="700.000000pt" viewBox="0 0 700.000000 700.000000"
 preserveAspectRatio="xMidYMid meet">
<metadata>
Created by potrace 1.11, written by Peter Selinger 2001-2013
</metadata>
<g transform="translate(0.000000,700.000000) scale(0.100000,-0.100000)"
fill="#000000" stroke="none">
<path d="M3315 6205 c-432 -54 -808 -193 -1165 -431 -530 -352 -904 -850
-1095 -1454 -130 -409 -159 -859 -85 -1288 185 -1075 1017 -1948 2086 -2186
220 -49 322 -60 599 -60 279 -1 367 8 605 61 216 48 533 167 682 257 41 25 53
37 53 56 0 14 -38 89 -84 168 -61 104 -88 142 -102 142 -10 0 -63 -22 -117
-49 -334 -168 -654 -244 -1037 -244 -185 0 -299 11 -465 44 -867 175 -1568
839 -1786 1694 -47 184 -65 311 -71 511 -11 351 38 629 168 957 119 298 291
551 543 794 404 392 928 618 1486 642 l145 6 0 195 0 195 -130 1 c-71 1 -175
-4 -230 -11z"/>
<path d="M3495 5454 c-378 -40 -704 -161 -996 -370 -99 -71 -279 -241 -361
-341 -315 -386 -479 -899 -439 -1378 16 -184 43 -322 97 -483 221 -662 766
-1144 1457 -1287 157 -33 411 -46 420 -23 3 9 7 96 8 194 l2 178 -24 7 c-13 4
-52 7 -86 8 -146 2 -333 43 -504 110 -297 116 -568 344 -746 626 -43 68 -127
246 -153 325 -127 379 -94 812 88 1175 212 425 590 716 1067 825 132 31 404
38 547 16 206 -33 395 -100 560 -199 135 -81 184 -119 300 -232 53 -52 103
-95 110 -95 8 0 74 58 148 128 122 118 132 130 121 150 -18 34 -178 188 -266
257 -260 203 -564 335 -895 390 -93 15 -376 27 -455 19z"/>
<path d="M3465 4630 c-265 -51 -469 -154 -640 -324 -142 -141 -239 -313 -292
-514 -31 -120 -42 -336 -24 -462 65 -441 345 -772 774 -915 141 -47 255 -65
416 -65 340 0 630 102 834 292 45 43 56 59 50 74 -8 22 -244 292 -273 312 -16
12 -24 8 -72 -36 -165 -148 -332 -210 -542 -199 -120 6 -196 25 -291 72 -195
96 -320 268 -362 500 -50 273 66 574 276 714 139 92 264 125 451 118 191 -8
313 -57 450 -182 64 -59 73 -64 93 -54 38 20 297 282 297 300 0 21 -120 134
-201 189 -127 87 -308 155 -489 185 -117 20 -342 17 -455 -5z"/>
</g>
</svg>
