<svg width="89" height="40" xmlns="http://www.w3.org/2000/svg"><defs><linearGradient x1="8.95188922%" y1="81.9821715%" x2="92.2915894%" y2="9.27115118%" id="a"><stop stop-color="#F7AC1E" offset="0%"/><stop stop-color="#DC3B55" offset="100%"/></linearGradient><linearGradient x1="49.932426%" y1="-.9286804%" x2="49.932426%" y2="101.331513%" id="b"><stop stop-color="#385CFA" offset="0%"/><stop stop-color="#94C2FC" offset="100%"/></linearGradient></defs><g fill-rule="nonzero" fill="none"><path d="M20.6212766 25.0382979c-.9059983.016272-1.8006124-.2037151-2.5957447-.6382979-.7473423-.4152179-1.3635055-1.0313811-1.7787234-1.7787234-.8505772-1.6259771-.8505772-3.5655123 0-5.1914894.4152179-.7473423 1.0313811-1.3635055 1.7787234-1.7787234.7951323-.4345828 1.6897464-.6545699 2.5957447-.6382978 1.4507726-.0146684 2.8350342.6074716 3.787234 1.7021276.03861.0411393.0925167.064476.1489362.064476s.1103263-.0233367.1489362-.064476l1.9659574-1.906383c.0768354-.0844261.0768354-.2134461 0-.2978723-.7059554-.7947007-1.577451-1.4250825-2.5531915-1.8468085-1.1658121-.5035162-2.4237534-.7585826-3.693617-.7489362-1.513565-.0221321-3.0086119.3348067-4.3489362 1.0382979-1.2591794.6665867-2.312613 1.6641118-3.0468085 2.8851064-.7441551 1.2623447-1.1268993 2.7049959-1.1063829 4.1702127-.0205164 1.4652168.3622278 2.9078681 1.1063829 4.1702128.7293694 1.224865 1.7840274 2.2235495 3.0468085 2.8851064 1.3395418.703826 2.8361284 1.0552749 4.3489362 1.0212766 1.2671755.0172097 2.524374-.2261191 3.693617-.7148936.8991037-.3811908 1.7102252-.9431821 2.3829788-1.6510639.0718035-.0830906.0718035-.206271 0-.2893617l-1.8212766-2.0680851c-.0403244-.0443647-.0974945-.0696581-.1574468-.0696581-.0599524 0-.1171225.0252934-.1574469.0696581-.9444633 1.0775862-2.3118414 1.6897987-3.7446808 1.6765958zM43.4042553 25.7957447c-1.5706026 1.1858231-3.478981 1.8388463-5.4468085 1.8638298v3.0553191c0 .1175074-.0952586.212766-.2127659.212766h-2.5531915c-.1175074 0-.212766-.0952586-.212766-.212766v-3.0553191c-1.9605458-.0281379-3.8627716-.6711438-5.4382979-1.8382979-1.2715476-1.1159568-1.9615331-2.7531043-1.8723404-4.4425532-.0850395-1.6659851.6101844-3.2766396 1.8808511-4.3574468 1.5944543-1.1428445 3.502207-1.7668758 5.4638298-1.787234v-3.319149c.0043687-.1156495.0971164-.2083972.2127659-.2127659h2.5531915c.1175074 0 .212766.0952585.212766.2127659v3.3446809c1.9469022.0302726 3.8370806.6603321 5.4127659 1.8042553 1.2543109 1.0732717 1.9422672 2.6659377 1.8638298 4.3148936.0796247 1.6786109-.6057572 3.3028722-1.8638298 4.4170213zM32 23.8297872c.8679038.6650887 1.9202078 1.0455828 3.012766 1.0893617v-6.9617021c-1.0854986.0369856-2.1349597.3986642-3.012766 1.0382979-.6386476.6226647-.9742434 1.4927278-.9191489 2.3829787-.0474663.9092393.2855307 1.7972312.9191489 2.4510638zm9.0212766 0c.6484668-.6588098.9858122-1.5625242.9276596-2.4851063.0563824-.8921139-.2829489-1.7637905-.9276596-2.3829788-.8849819-.6381926-1.9393836-.9995325-3.0297872-1.0382978v6.9957446c1.0973631-.0457831 2.1545167-.4258832 3.0297872-1.0893617zM59.4297872 22.3914894h-9.1063829c.1447966.7302138.5615552 1.3781669 1.1659574 1.8127659.6722222.4533538 1.4705042.6827109 2.2808511.6553192.5800175.0146673 1.1575669-.0806284 1.7021276-.2808511.4297598-.1789672.8244888-.4325158 1.1659575-.7489362.0383255-.0384588.0903861-.0600759.1446808-.0600759.0542948 0 .1063554.0216171.1446809.0600759l1.5829787 1.7531915c.0768354.0844262.0768354.2134462 0 .2978724-1.2674923 1.2809841-3.0270067 1.9512753-4.8255319 1.8382978-1.2476456.024792-2.4827722-.2526004-3.6-.8085106-1.0055409-.4953847-1.847484-1.2693816-2.4255319-2.2297872-.5775354-.9909018-.8719233-2.1213514-.8510639-3.2680851-.0101529-1.1400495.2836092-2.2622206.8510639-3.2510639.5430201-.9546319 1.3418053-1.7386793 2.3063829-2.2638298 2.0299366-1.0551583 4.4466593-1.0551583 6.4765958 0 .9518964.4907962 1.7433684 1.2438759 2.2808511 2.1702128.5800274 1.0394108.8737183 2.2141741.8510638 3.4042553 0 0-.1021277.3319149-.1446809.919149zm-8.1617021-3.9489362c-.5497667.4801811-.9015932 1.1474384-.987234 1.8723404h5.9574468c-.0952314-.7194636-.445551-1.3808429-.9872341-1.8638298-.5469901-.466836-1.2470493-.7153418-1.9659574-.6978723-.7347154-.0293299-1.4539467.2164834-2.0170213.6893617zM71.4893617 15.9744681c.9127533.502493 1.6627995 1.2554921 2.1617021 2.1702128.5373854.997881.8071382 2.1179416.7829788 3.2510638.0379334 1.1423148-.2231668 2.2747267-.7574469 3.2851064-.5109464.9056851-1.2697336 1.6467574-2.187234 2.1361702-.9296359.5220721-1.9807111.7892448-3.0468085.7744681-1.3636372.0711484-2.6895488-.4610837-3.6255319-1.4553192v4.5531915c0 .1175074-.0952586.212766-.212766.212766h-2.9361702c-.1175074 0-.212766-.0952586-.212766-.212766V15.5914894c0-.1175074.0952586-.212766.212766-.212766h2.8085106c.1175074 0 .212766.0952586.212766.212766v1.174468c.9458466-1.0835381 2.3436984-1.662828 3.7787234-1.5659574 1.057465-.0102861 2.0991616.2567404 3.0212766.7744681zm-1.4212766 7.8553191c.5897643-.6662227.8952542-1.5368689.8510638-2.4255319.0441904-.8886629-.2612995-1.7593092-.8510638-2.4255319-1.2187692-1.2140098-3.1897414-1.2140098-4.4085106 0-.5897643.6662227-.8952543 1.536869-.8510639 2.4255319-.0441904.888663.2612996 1.7593092.8510639 2.4255319 1.2225765 1.2047575 3.1859341 1.2047575 4.4085106 0zM88.9957447 15.5829787v11.6c0 .1175074-.0952586.212766-.212766.212766h-2.7404255c-.1175074 0-.212766-.0952586-.212766-.212766v-1.1744681c-.9394727 1.0772358-2.3266804 1.6560255-3.7531915 1.5659575-1.0751964.0184014-2.1367594-.2425906-3.080851-.7574468-.9072147-.491535-1.654472-1.2328851-2.1531915-2.1361702-.5413662-1.0025015-.8112806-2.1291008-.7829787-3.2680851-.0272078-1.1361586.2426852-2.2597348.7829787-3.2595745.4958382-.9141215 1.2430025-1.6671922 2.1531915-2.1702128.9440916-.5148562 2.0056546-.7758482 3.080851-.7574468 1.3545328-.0715577 2.6716996.4578 3.6 1.4468085v-1.0893617c0-.1175074.0952586-.2127659.212766-.2127659h2.893617c.1175074 0 .212766.0952585.212766.2127659zm-4.1276596 8.2468085c.5918766-.6683642.897514-1.5424871.8510638-2.4340425.0441904-.888663-.2612995-1.7593092-.8510638-2.4255319-.5704624-.5990729-1.3688882-.9271083-2.1957447-.9021277-.8319366-.0255292-1.63582.3022079-2.2127659.9021277-.5897643.6662227-.8952543 1.5368689-.8510639 2.4255319-.0464501.8915554.2591873 1.7656783.8510639 2.4340425.5857648.5811921 1.3885128.8899413 2.2127659.8510639.8191227.0382824 1.616393-.2707372 2.1957447-.8510639z" fill="#0F1735"/><path d="M30.2978723 11.2595745l-1.7021276 1.6255319c-.0401028.0416068-.0954043.0651119-.1531915.0651119-.0577872 0-.1130887-.0235051-.1531915-.0651119-3.3267687-3.83464301-8.8500068-4.88582319-13.3527921-2.5412974-4.5027853 2.3445258-6.80876896 7.4722522-5.57486747 12.3966165 1.28343377 4.8746901 5.69964657 8.2655856 10.74042557 8.2468085.0680851 0 .1702127 0 .1702127.119149 0 .6042553-.0595744 2.4680851-.0595744 2.4680851 0 .0987062-.0800172.1787234-.1787234.1787234-5.9344835.063434-11.22655812-3.7239974-13.08085111-9.3617021-1.38444589-4.1957002-.67156129-8.8009036 1.91667448-12.3816334C11.4581017 8.42912613 15.6073209 6.30778622 20.0255319 6.30638298c3.9389699-.00823014 7.6885195 1.68962054 10.2808511 4.65531912.074466.0866063.0707788.2156591-.0085107.2978724z" fill="url(#a)"/><path d="M19.5744681 39.1914894c-8.3479622-.2007306-15.60804687-5.7763575-17.95592732-13.7898601-2.34788045-8.0135025.75536798-16.62548801 7.67507624-21.29950164C12.464337 1.94082659 16.2225639.80593119 20.0595745.85106383c.0968642.00431138.174412.0818592.1787234.1787234v2.48510639c-.0040632.05463213-.0474956.09806447-.1021277.10212766-3.2744597-.04559157-6.4855924.90409647-9.2085106 2.72340425C4.94141711 10.3351944 2.25074225 17.7601945 4.28807924 24.6625517 6.32541623 31.5649089 12.6167603 36.3387278 19.812766 36.4425532h.2127659c2.8236974.0127214 5.6018059-.711875 8.0595745-2.1021277.1021365-.0494062.2250447-.0168717.2893617.0765958l1.1744681 2.0170213c.0300066.0503875.0378848.1109261.0217737.1673152-.0161112.0563891-.054783.1036278-.1068801.1305571-2.8551656 1.6171034-6.0803925 2.4673905-9.3617021 2.4680851l-.5276596-.0085106z" fill="url(#b)"/></g></svg>