<svg width="37" height="47" viewBox="0 0 37 47" version="1.1" xmlns="http://www.w3.org/2000/svg" xmlns:xlink="http://www.w3.org/1999/xlink">
<title>S Copy</title>
<desc>Created using Figma</desc>
<g id="Canvas" transform="translate(-63 -1780)">
<g id="S Copy">
<use xlink:href="#path0_fill" transform="translate(63 1780)" fill="#749EFB"/>
</g>
</g>
<defs>
<path id="path0_fill" fill-rule="evenodd" d="M 18.8838 47C 6.33729 47 0.576117 41.125 0 31.9932L 9.92202 31.9932C 10.3701 36.0802 12.0985 39.4647 18.8838 39.4647C 23.4288 39.4647 26.4374 36.9742 26.4374 33.3981C 26.4374 29.7582 24.517 28.481 17.7956 27.4592C 6.08124 25.9266 1.28026 22.4144 1.28026 13.6019C 1.28026 5.81114 7.80959 0 17.9236 0C 28.2297 0 34.247 4.59783 35.0791 13.6658L 25.5412 13.6658C 24.9011 9.51495 22.4686 7.59918 17.9236 7.59918C 13.3787 7.59918 11.0743 9.70652 11.0743 12.7717C 11.0743 16.0285 12.5465 17.5611 19.588 18.5829C 30.6622 19.9878 36.3594 22.9891 36.3594 32.4402C 36.3594 40.5503 29.702 47 18.8838 47Z"/>
</defs>
</svg>
