<svg viewBox="0 0 29 32" version="1.1" xmlns="http://www.w3.org/2000/svg" xmlns:xlink="http://www.w3.org/1999/xlink">
<title>logo</title>
<desc>Created using Figma</desc>
<g id="Canvas" transform="translate(-496 -2995)">
<g id="logo">
<use xlink:href="#path0_fill" transform="translate(496 2995)" fill="#FFFFFF"/>
</g>
</g>
<defs>
<path id="path0_fill" fill-rule="evenodd" d="M 21.0809 0C 19.3322 0.0671387 17.2133 1.06763 15.9592 2.41235C 14.8318 3.60693 13.8478 5.51294 14.1131 7.34058C 16.0655 7.48071 18.0549 6.43237 19.2702 5.08691C 20.4831 3.73877 21.3043 1.86816 21.0809 0ZM 20.5866 31.8076C 22.956 31.7673 24.4567 29.8376 25.9075 27.896C 27.4972 25.769 28.1992 23.707 28.3038 23.3997L 28.3157 23.365L 28.3066 23.3616C 28.0736 23.2747 23.6935 21.6409 23.65 16.9243C 23.6071 13.0271 27.0005 11.0884 27.3748 10.8745L 27.4027 10.8584C 25.3597 8.12256 22.1786 7.74731 21.0451 7.70459C 19.3894 7.55127 17.7831 8.13086 16.4708 8.60425C 15.6367 8.90527 14.9214 9.16333 14.3875 9.16333C 13.7932 9.16333 13.0583 8.89624 12.2335 8.59644C 11.1539 8.2041 9.92041 7.75586 8.647 7.77734C 5.69745 7.81763 2.97562 9.34912 1.45663 11.7698C -1.61081 16.6438 0.669983 23.8662 3.65833 27.8184C 5.12103 29.7512 6.86035 31.9265 9.14774 31.8481C 10.1691 31.8105 10.896 31.5273 11.6477 31.2341C 12.5164 30.8953 13.4183 30.5437 14.8463 30.5437C 16.2064 30.5437 17.0666 30.8845 17.894 31.2124C 18.6853 31.5259 19.4467 31.8274 20.5866 31.8076Z"/>
</defs>
</svg>
